<svg xmlns="http://www.w3.org/2000/svg" viewBox="0 0 290 290" role="img" aria-labelledby="title desc">
  <title id="title">PayNow SGQR placeholder</title>
  <desc id="desc">A plain black and white QR-style placeholder image without branding or app labels.</desc>
  <rect width="290" height="290" fill="#ffffff"/>

  <rect x="20" y="20" width="70" height="70" fill="#111111"/>
  <rect x="30" y="30" width="50" height="50" fill="#ffffff"/>
  <rect x="40" y="40" width="30" height="30" fill="#111111"/>

  <rect x="200" y="20" width="70" height="70" fill="#111111"/>
  <rect x="210" y="30" width="50" height="50" fill="#ffffff"/>
  <rect x="220" y="40" width="30" height="30" fill="#111111"/>

  <rect x="20" y="200" width="70" height="70" fill="#111111"/>
  <rect x="30" y="210" width="50" height="50" fill="#ffffff"/>
  <rect x="40" y="220" width="30" height="30" fill="#111111"/>

  <g fill="#111111">
    <rect x="110" y="20" width="10" height="10"/>
    <rect x="130" y="20" width="10" height="10"/>
    <rect x="140" y="20" width="10" height="10"/>
    <rect x="150" y="20" width="10" height="10"/>
    <rect x="170" y="20" width="10" height="10"/>

    <rect x="100" y="40" width="10" height="10"/>
    <rect x="120" y="40" width="10" height="10"/>
    <rect x="140" y="40" width="10" height="10"/>
    <rect x="160" y="40" width="10" height="10"/>
    <rect x="180" y="40" width="10" height="10"/>

    <rect x="100" y="60" width="10" height="10"/>
    <rect x="110" y="60" width="10" height="10"/>
    <rect x="130" y="60" width="10" height="10"/>
    <rect x="150" y="60" width="10" height="10"/>
    <rect x="170" y="60" width="10" height="10"/>
    <rect x="180" y="60" width="10" height="10"/>

    <rect x="20" y="110" width="10" height="10"/>
    <rect x="40" y="110" width="10" height="10"/>
    <rect x="50" y="110" width="10" height="10"/>
    <rect x="80" y="110" width="10" height="10"/>
    <rect x="100" y="110" width="10" height="10"/>
    <rect x="110" y="110" width="10" height="10"/>
    <rect x="130" y="110" width="10" height="10"/>
    <rect x="150" y="110" width="10" height="10"/>
    <rect x="160" y="110" width="10" height="10"/>
    <rect x="180" y="110" width="10" height="10"/>
    <rect x="210" y="110" width="10" height="10"/>
    <rect x="230" y="110" width="10" height="10"/>
    <rect x="250" y="110" width="10" height="10"/>

    <rect x="30" y="120" width="10" height="10"/>
    <rect x="60" y="120" width="10" height="10"/>
    <rect x="70" y="120" width="10" height="10"/>
    <rect x="90" y="120" width="10" height="10"/>
    <rect x="120" y="120" width="10" height="10"/>
    <rect x="140" y="120" width="10" height="10"/>
    <rect x="170" y="120" width="10" height="10"/>
    <rect x="190" y="120" width="10" height="10"/>
    <rect x="200" y="120" width="10" height="10"/>
    <rect x="220" y="120" width="10" height="10"/>
    <rect x="240" y="120" width="10" height="10"/>

    <rect x="20" y="130" width="10" height="10"/>
    <rect x="40" y="130" width="10" height="10"/>
    <rect x="60" y="130" width="10" height="10"/>
    <rect x="80" y="130" width="10" height="10"/>
    <rect x="100" y="130" width="10" height="10"/>
    <rect x="110" y="130" width="10" height="10"/>
    <rect x="130" y="130" width="10" height="10"/>
    <rect x="140" y="130" width="10" height="10"/>
    <rect x="160" y="130" width="10" height="10"/>
    <rect x="180" y="130" width="10" height="10"/>
    <rect x="200" y="130" width="10" height="10"/>
    <rect x="230" y="130" width="10" height="10"/>
    <rect x="250" y="130" width="10" height="10"/>

    <rect x="30" y="140" width="10" height="10"/>
    <rect x="50" y="140" width="10" height="10"/>
    <rect x="70" y="140" width="10" height="10"/>
    <rect x="90" y="140" width="10" height="10"/>
    <rect x="120" y="140" width="10" height="10"/>
    <rect x="150" y="140" width="10" height="10"/>
    <rect x="170" y="140" width="10" height="10"/>
    <rect x="190" y="140" width="10" height="10"/>
    <rect x="220" y="140" width="10" height="10"/>
    <rect x="240" y="140" width="10" height="10"/>

    <rect x="20" y="150" width="10" height="10"/>
    <rect x="40" y="150" width="10" height="10"/>
    <rect x="60" y="150" width="10" height="10"/>
    <rect x="80" y="150" width="10" height="10"/>
    <rect x="110" y="150" width="10" height="10"/>
    <rect x="130" y="150" width="10" height="10"/>
    <rect x="140" y="150" width="10" height="10"/>
    <rect x="160" y="150" width="10" height="10"/>
    <rect x="180" y="150" width="10" height="10"/>
    <rect x="210" y="150" width="10" height="10"/>
    <rect x="230" y="150" width="10" height="10"/>
    <rect x="250" y="150" width="10" height="10"/>

    <rect x="100" y="170" width="10" height="10"/>
    <rect x="120" y="170" width="10" height="10"/>
    <rect x="130" y="170" width="10" height="10"/>
    <rect x="150" y="170" width="10" height="10"/>
    <rect x="170" y="170" width="10" height="10"/>
    <rect x="190" y="170" width="10" height="10"/>
    <rect x="220" y="170" width="10" height="10"/>
    <rect x="230" y="170" width="10" height="10"/>

    <rect x="100" y="190" width="10" height="10"/>
    <rect x="110" y="190" width="10" height="10"/>
    <rect x="140" y="190" width="10" height="10"/>
    <rect x="150" y="190" width="10" height="10"/>
    <rect x="180" y="190" width="10" height="10"/>
    <rect x="200" y="190" width="10" height="10"/>
    <rect x="220" y="190" width="10" height="10"/>
    <rect x="240" y="190" width="10" height="10"/>
    <rect x="250" y="190" width="10" height="10"/>

    <rect x="110" y="210" width="10" height="10"/>
    <rect x="130" y="210" width="10" height="10"/>
    <rect x="150" y="210" width="10" height="10"/>
    <rect x="160" y="210" width="10" height="10"/>
    <rect x="180" y="210" width="10" height="10"/>
    <rect x="190" y="210" width="10" height="10"/>
    <rect x="210" y="210" width="10" height="10"/>
    <rect x="230" y="210" width="10" height="10"/>

    <rect x="100" y="220" width="10" height="10"/>
    <rect x="120" y="220" width="10" height="10"/>
    <rect x="140" y="220" width="10" height="10"/>
    <rect x="170" y="220" width="10" height="10"/>
    <rect x="180" y="220" width="10" height="10"/>
    <rect x="200" y="220" width="10" height="10"/>
    <rect x="220" y="220" width="10" height="10"/>
    <rect x="250" y="220" width="10" height="10"/>

    <rect x="100" y="240" width="10" height="10"/>
    <rect x="110" y="240" width="10" height="10"/>
    <rect x="130" y="240" width="10" height="10"/>
    <rect x="150" y="240" width="10" height="10"/>
    <rect x="170" y="240" width="10" height="10"/>
    <rect x="190" y="240" width="10" height="10"/>
    <rect x="210" y="240" width="10" height="10"/>
    <rect x="230" y="240" width="10" height="10"/>
    <rect x="240" y="240" width="10" height="10"/>

    <rect x="120" y="250" width="10" height="10"/>
    <rect x="140" y="250" width="10" height="10"/>
    <rect x="160" y="250" width="10" height="10"/>
    <rect x="180" y="250" width="10" height="10"/>
    <rect x="200" y="250" width="10" height="10"/>
    <rect x="220" y="250" width="10" height="10"/>
  </g>
</svg>
